<svg xmlns="http://www.w3.org/2000/svg" viewBox="0 0 34 26.5"><defs><style>.cls-1{fill:none;stroke:#fff;stroke-linecap:round;stroke-linejoin:round;stroke-width:3px;}.cls-2{fill:#fff;}</style></defs><g id="레이어_2" data-name="레이어 2"><g id="레이어_1-2" data-name="레이어 1"><path class="cls-1" d="M5.5,14A11.68,11.68,0,0,1,17,1.5,11.68,11.68,0,0,1,28.5,14"/><path class="cls-2" d="M3.8,15.86,3.74,23.5H3V15.86h.8m3-3Zm0,0h-4A2.84,2.84,0,0,0,0,15.7v8A2.84,2.84,0,0,0,2.83,26.5H6.72l.1-13.64Z"/><path class="cls-2" d="M8.81,12.86H8L7.93,26.5h.88c.77,0,1.39-1.27,1.39-2.84v-8c0-1.56-.62-2.84-1.39-2.84Z"/><path class="cls-2" d="M31,15.85v7.64h-.8l.06-7.64H31m.17-3H27.28l-.1,13.64h4A2.84,2.84,0,0,0,34,23.65v-8a2.84,2.84,0,0,0-2.83-2.84Z"/><path class="cls-2" d="M26.07,12.85Zm0,0h-.88c-.77,0-1.39,1.27-1.39,2.84v8c0,1.57.62,2.84,1.39,2.84H26l.05-13.64Z"/></g></g></svg>