<svg xmlns="http://www.w3.org/2000/svg" viewBox="0 0 34.11 34.19"><defs><style>.cls-1{fill:#3e3a39;}</style></defs><g id="레이어_2" data-name="레이어 2"><g id="레이어_1-2" data-name="레이어 1"><path class="cls-1" d="M26,16.71V31.19H8V16.71H26m1.8-3H6.24A1.2,1.2,0,0,0,5,14.91V33a1.2,1.2,0,0,0,1.2,1.2h21.6A1.19,1.19,0,0,0,29,33V14.91a1.2,1.2,0,0,0-1.2-1.2Z"/><path class="cls-1" d="M17.05,3.64,28.28,14H5.82L17.05,3.64m0-3.64a1.2,1.2,0,0,0-.81.32L.39,14.87A1.21,1.21,0,0,0,1.2,17H32.91a1.21,1.21,0,0,0,.81-2.09L17.87.32A1.23,1.23,0,0,0,17.05,0Z"/></g></g></svg>